<svg id="svg" version="1.1" xmlns="http://www.w3.org/2000/svg" xmlns:xlink="http://www.w3.org/1999/xlink" width="400" height="400" viewBox="0, 0, 400,400"><g id="svgg"><path id="path0" d="M170.919 172.875 C 170.881 172.990,170.770 173.905,170.674 174.909 C 170.578 175.913,170.426 177.151,170.337 177.659 C 170.248 178.167,170.090 179.483,169.986 180.583 C 169.883 181.683,169.732 183.033,169.650 183.583 C 169.569 184.133,169.502 184.898,169.501 185.282 C 169.501 185.666,169.435 186.021,169.355 186.070 C 169.275 186.119,169.160 186.742,169.099 187.455 C 168.876 190.075,168.394 194.303,168.232 195.066 C 168.176 195.332,168.060 196.157,167.976 196.899 C 167.891 197.642,167.758 198.737,167.679 199.333 C 167.601 199.929,167.419 201.429,167.274 202.667 C 167.130 203.904,166.930 205.554,166.829 206.333 C 166.729 207.112,166.604 208.406,166.553 209.208 C 166.501 210.010,166.393 210.667,166.313 210.667 C 166.232 210.667,166.167 211.052,166.167 211.522 C 166.167 211.993,166.096 212.837,166.009 213.397 C 165.922 213.958,165.768 215.204,165.668 216.167 C 165.567 217.129,165.380 218.742,165.253 219.750 C 165.126 220.758,164.937 222.296,164.833 223.167 C 164.729 224.037,164.577 225.200,164.495 225.750 C 164.414 226.300,164.226 227.688,164.078 228.833 C 163.930 229.979,163.776 231.147,163.736 231.429 C 163.506 233.038,158.907 234.257,157.500 233.082 C 157.362 232.967,157.088 232.824,156.891 232.764 C 156.325 232.592,156.050 231.770,155.571 228.826 C 155.325 227.318,155.061 225.746,154.984 225.333 C 154.907 224.921,154.794 224.062,154.734 223.425 C 154.673 222.787,154.520 222.163,154.395 222.038 C 154.269 221.912,154.167 221.516,154.167 221.158 C 154.167 220.372,153.845 218.214,153.659 217.750 C 153.522 217.407,153.329 216.301,153.252 215.417 C 153.168 214.448,152.980 213.233,152.670 211.667 C 152.265 209.618,151.799 206.654,151.708 205.542 C 151.668 205.060,151.568 204.667,151.485 204.667 C 151.401 204.667,151.333 204.449,151.333 204.183 C 151.333 203.712,150.776 200.243,150.566 199.405 C 150.448 198.937,150.199 198.942,149.929 199.417 C 149.830 199.590,149.692 199.811,149.620 199.908 C 149.549 200.004,149.249 200.429,148.954 200.852 C 148.168 201.975,147.375 202.833,147.122 202.833 C 147.000 202.833,146.828 202.906,146.740 202.994 C 146.324 203.410,142.919 203.497,127.111 203.499 C 118.051 203.499,110.664 203.558,110.694 203.629 C 110.725 203.699,111.313 204.277,112.000 204.912 C 114.389 207.121,123.569 216.225,187.136 279.428 C 199.946 292.164,199.663 291.937,201.417 290.858 C 201.947 290.531,235.949 256.804,277.046 215.839 L 289.676 203.250 272.630 203.167 C 259.737 203.104,255.482 203.034,255.167 202.881 C 254.606 202.608,254.000 202.072,254.000 201.848 C 254.000 201.748,253.939 201.667,253.864 201.667 C 253.790 201.667,253.626 201.404,253.500 201.083 C 253.374 200.762,253.224 200.500,253.166 200.500 C 253.109 200.500,252.841 200.031,252.572 199.458 C 252.303 198.885,252.046 198.379,252.000 198.333 C 251.954 198.287,251.810 198.044,251.680 197.792 C 251.530 197.501,251.309 197.333,251.075 197.333 C 250.683 197.333,250.589 197.510,250.093 199.167 C 249.943 199.671,249.718 200.218,249.594 200.383 C 249.470 200.547,249.405 200.820,249.449 200.989 C 249.493 201.158,249.448 201.346,249.348 201.408 C 249.248 201.469,249.167 201.698,249.167 201.917 C 249.167 202.135,249.092 202.360,249.000 202.417 C 248.908 202.473,248.833 202.665,248.833 202.843 C 248.833 203.021,248.769 203.167,248.691 203.167 C 248.613 203.167,248.417 203.655,248.256 204.252 C 248.094 204.849,247.896 205.378,247.814 205.428 C 247.733 205.479,247.667 205.740,247.667 206.010 C 247.667 206.279,247.595 206.500,247.507 206.500 C 247.418 206.500,247.252 206.959,247.136 207.520 C 247.020 208.080,246.830 208.576,246.713 208.621 C 246.596 208.666,246.500 208.877,246.500 209.091 C 246.500 209.305,246.425 209.527,246.333 209.583 C 246.242 209.640,246.167 209.867,246.167 210.089 C 246.167 210.641,245.455 211.881,245.022 212.081 C 244.826 212.172,244.667 212.303,244.667 212.373 C 244.667 212.443,244.446 212.500,244.177 212.500 C 243.907 212.500,243.640 212.575,243.583 212.667 C 243.326 213.083,240.339 212.738,240.335 212.292 C 240.334 212.223,240.240 212.164,240.125 212.161 C 239.777 212.152,239.167 211.550,239.167 211.215 C 239.167 211.042,239.099 210.829,239.017 210.742 C 238.935 210.655,238.830 210.283,238.784 209.917 C 238.598 208.418,238.325 206.980,238.175 206.707 C 238.087 206.547,237.858 205.554,237.666 204.500 C 237.473 203.446,237.212 202.133,237.086 201.583 C 236.848 200.548,236.665 199.583,236.326 197.583 C 236.218 196.942,236.070 196.267,235.998 196.083 C 235.925 195.900,235.778 195.188,235.669 194.500 C 235.561 193.813,235.404 193.120,235.320 192.961 C 235.235 192.801,235.167 192.338,235.167 191.931 C 235.167 191.524,235.066 191.090,234.943 190.966 C 234.819 190.843,234.625 190.107,234.510 189.330 C 234.395 188.552,234.196 187.614,234.067 187.244 C 233.939 186.875,233.833 186.373,233.833 186.130 C 233.833 185.887,233.684 185.064,233.501 184.302 C 233.318 183.540,233.168 182.710,233.168 182.458 C 233.167 182.206,233.092 182.000,233.000 182.000 C 232.908 182.000,232.833 181.844,232.833 181.653 C 232.833 180.978,232.416 181.446,232.364 182.180 C 232.336 182.585,232.242 182.988,232.156 183.075 C 232.070 183.162,232.000 183.428,232.000 183.667 C 232.000 183.905,231.939 184.171,231.864 184.258 C 231.790 184.345,231.559 185.354,231.351 186.500 C 231.143 187.646,230.872 188.921,230.749 189.333 C 230.626 189.746,230.436 190.608,230.327 191.250 C 230.218 191.892,230.062 192.634,229.981 192.900 C 229.900 193.166,229.833 193.559,229.833 193.775 C 229.833 193.990,229.772 194.167,229.696 194.167 C 229.557 194.167,229.193 195.705,229.047 196.917 C 229.002 197.283,228.899 197.655,228.816 197.742 C 228.734 197.829,228.667 198.111,228.667 198.369 C 228.667 198.627,228.595 198.968,228.508 199.127 C 228.420 199.286,228.236 200.005,228.099 200.724 C 227.824 202.158,227.438 202.691,226.333 203.159 C 225.557 203.488,194.679 203.643,193.583 203.323 C 191.943 202.845,190.833 201.754,190.833 200.620 C 190.833 200.485,190.721 200.281,190.583 200.167 C 190.446 200.053,190.333 199.840,190.333 199.694 C 190.333 199.548,190.025 198.788,189.648 198.006 C 189.271 197.223,188.859 196.366,188.732 196.099 C 188.604 195.833,188.500 195.521,188.500 195.405 C 188.500 195.289,188.252 194.719,187.949 194.139 C 187.646 193.558,187.295 192.760,187.169 192.365 C 186.802 191.215,186.446 191.168,185.931 192.201 C 185.694 192.676,185.500 193.163,185.500 193.283 C 185.500 193.402,185.425 193.500,185.333 193.500 C 185.242 193.500,185.167 193.634,185.167 193.798 C 185.167 193.962,185.021 194.382,184.843 194.731 C 184.665 195.080,184.469 195.596,184.407 195.877 C 184.345 196.159,184.154 196.620,183.981 196.903 C 183.809 197.185,183.668 197.548,183.667 197.708 C 183.667 197.869,183.592 198.000,183.500 198.000 C 183.408 198.000,183.333 198.125,183.333 198.277 C 183.333 198.430,183.071 199.108,182.750 199.784 C 182.429 200.460,182.167 201.073,182.167 201.147 C 182.167 201.729,179.400 202.391,177.888 202.170 C 175.728 201.854,175.291 201.397,175.015 199.167 C 174.896 198.204,174.700 196.779,174.580 196.000 C 174.460 195.221,174.273 193.833,174.164 192.917 C 174.055 192.000,173.897 191.100,173.813 190.917 C 173.730 190.733,173.591 189.871,173.506 189.000 C 173.215 186.033,172.821 183.270,172.663 183.079 C 172.576 182.974,172.512 182.520,172.520 182.069 C 172.529 181.619,172.455 180.800,172.357 180.250 C 172.258 179.700,172.134 178.800,172.081 178.250 C 171.833 175.670,171.624 174.245,171.485 174.194 C 171.402 174.164,171.333 173.808,171.333 173.403 C 171.333 172.720,171.080 172.397,170.919 172.875 " stroke="none" fill="#4464b3" fill-rule="evenodd"></path><path id="path1" d="M146.417 108.932 C 140.559 109.382,132.005 111.125,130.583 112.158 C 130.492 112.225,129.929 112.454,129.333 112.668 C 111.950 118.913,97.774 136.502,94.840 155.467 C 92.390 171.302,96.612 186.793,106.805 199.377 C 108.822 201.867,108.971 201.979,109.506 201.410 L 109.891 201.000 126.987 201.000 L 144.083 201.000 144.574 200.125 C 144.845 199.644,145.201 199.105,145.366 198.927 C 145.531 198.749,145.667 198.546,145.667 198.474 C 145.667 198.403,145.885 198.121,146.153 197.848 C 146.420 197.574,146.688 197.197,146.747 197.009 C 146.807 196.820,146.926 196.667,147.011 196.667 C 147.097 196.667,147.167 196.589,147.167 196.493 C 147.167 196.309,147.347 196.059,147.958 195.393 C 148.165 195.169,148.333 194.851,148.333 194.688 C 148.333 194.360,148.991 193.667,149.302 193.667 C 149.411 193.667,149.500 193.486,149.500 193.265 C 149.500 192.436,150.392 191.960,151.824 192.025 C 153.441 192.100,154.167 192.539,154.167 193.444 C 154.167 193.768,154.273 194.269,154.402 194.558 C 154.531 194.847,154.677 195.421,154.726 195.833 C 154.775 196.246,154.897 197.071,154.997 197.667 C 155.098 198.262,155.246 199.313,155.327 200.000 C 155.407 200.688,155.552 201.588,155.649 202.000 C 155.745 202.412,155.982 203.875,156.175 205.250 C 156.367 206.625,156.590 207.900,156.670 208.083 C 156.816 208.420,156.887 208.879,157.151 211.185 C 157.231 211.882,157.380 212.608,157.481 212.799 C 157.583 212.989,157.667 213.518,157.667 213.975 C 157.667 214.432,157.725 214.831,157.796 214.861 C 157.917 214.913,158.355 217.481,158.686 220.083 C 158.768 220.725,158.909 221.422,159.001 221.633 C 159.092 221.843,159.167 222.300,159.167 222.647 C 159.167 223.502,159.512 225.167,159.690 225.167 C 159.769 225.167,159.833 225.017,159.833 224.833 C 159.833 224.650,159.894 224.500,159.969 224.500 C 160.043 224.500,160.196 223.581,160.308 222.458 C 160.421 221.335,160.552 220.117,160.600 219.750 C 160.648 219.383,160.752 218.483,160.832 217.750 C 160.912 217.017,161.052 215.892,161.143 215.250 C 161.234 214.608,161.403 213.108,161.518 211.917 C 161.632 210.725,161.781 209.712,161.849 209.666 C 161.916 209.619,162.016 208.982,162.071 208.249 C 162.126 207.516,162.240 206.429,162.325 205.833 C 162.409 205.237,162.564 203.813,162.670 202.667 C 162.775 201.521,162.925 200.433,163.004 200.250 C 163.083 200.067,163.187 199.429,163.235 198.833 C 163.283 198.237,163.393 197.075,163.479 196.250 C 163.565 195.425,163.719 193.932,163.823 192.933 C 163.927 191.934,164.049 191.055,164.096 190.980 C 164.175 190.851,164.338 189.387,164.668 185.833 C 164.749 184.963,164.868 183.688,164.933 183.000 C 164.997 182.313,165.109 181.711,165.182 181.663 C 165.254 181.615,165.393 180.828,165.490 179.913 C 165.587 178.998,165.741 177.575,165.833 176.750 C 165.925 175.925,166.043 174.688,166.096 174.000 C 166.149 173.313,166.256 172.600,166.333 172.417 C 166.411 172.233,166.516 171.596,166.568 171.000 C 166.620 170.404,166.742 169.204,166.840 168.333 C 166.938 167.462,167.081 166.188,167.158 165.500 C 167.235 164.813,167.380 163.594,167.482 162.792 C 167.905 159.449,168.000 158.524,168.000 157.733 C 168.000 157.275,168.069 156.829,168.152 156.742 C 168.236 156.655,168.390 155.871,168.494 155.000 C 168.736 152.970,168.816 152.667,169.113 152.667 C 169.247 152.667,169.462 152.562,169.590 152.434 C 169.745 152.279,170.216 152.202,171.006 152.202 C 172.768 152.202,173.189 152.665,173.484 154.932 C 173.602 155.840,173.756 156.658,173.827 156.750 C 173.898 156.842,174.002 157.479,174.058 158.167 C 174.115 158.854,174.240 159.979,174.337 160.667 C 174.772 163.743,175.032 165.837,175.113 166.917 C 175.161 167.558,175.268 168.155,175.350 168.242 C 175.433 168.329,175.500 168.873,175.500 169.450 C 175.500 170.039,175.573 170.500,175.667 170.500 C 175.758 170.500,175.833 170.744,175.832 171.042 C 175.831 171.920,176.709 178.742,176.835 178.833 C 176.899 178.879,176.999 179.367,177.059 179.917 C 177.390 182.990,177.775 186.162,177.988 187.583 C 178.214 189.090,178.675 192.785,178.778 193.917 C 178.829 194.467,178.936 194.988,179.018 195.075 C 179.100 195.162,179.167 195.518,179.167 195.867 C 179.167 196.824,179.421 196.632,179.929 195.292 C 180.182 194.627,180.451 194.058,180.527 194.028 C 180.604 193.997,180.667 193.716,180.667 193.403 C 180.667 193.090,180.742 192.833,180.833 192.833 C 180.925 192.833,181.000 192.683,181.000 192.500 C 181.000 192.317,181.075 192.167,181.167 192.167 C 181.258 192.167,181.333 192.021,181.333 191.843 C 181.333 191.665,181.403 191.477,181.487 191.425 C 181.572 191.372,181.690 191.105,181.750 190.831 C 181.811 190.557,181.914 190.333,181.980 190.333 C 182.046 190.333,182.198 190.052,182.319 189.708 C 182.440 189.365,182.650 188.821,182.786 188.500 C 182.922 188.179,183.110 187.729,183.203 187.500 C 183.296 187.271,183.438 186.953,183.519 186.794 C 183.600 186.635,183.667 186.403,183.667 186.278 C 183.667 185.942,184.122 185.090,184.457 184.801 C 185.840 183.605,188.811 184.222,188.828 185.708 C 188.831 185.960,188.891 186.167,188.960 186.167 C 189.092 186.167,189.202 186.352,189.722 187.442 C 189.890 187.795,190.097 188.214,190.181 188.373 C 190.265 188.532,190.333 188.745,190.333 188.847 C 190.333 188.949,190.596 189.585,190.917 190.261 C 191.237 190.937,191.500 191.643,191.500 191.829 C 191.500 192.015,191.556 192.167,191.625 192.168 C 191.794 192.170,192.167 192.994,192.167 193.367 C 192.167 193.532,192.242 193.667,192.333 193.667 C 192.425 193.667,192.500 193.782,192.500 193.922 C 192.500 194.062,192.612 194.220,192.750 194.273 C 192.887 194.326,193.000 194.548,193.000 194.768 C 193.000 194.987,193.075 195.167,193.167 195.167 C 193.258 195.167,193.333 195.318,193.333 195.502 C 193.333 195.687,193.400 195.968,193.481 196.127 C 193.562 196.286,193.718 196.642,193.829 196.917 C 193.940 197.192,194.136 197.629,194.265 197.889 C 194.394 198.148,194.500 198.467,194.500 198.597 C 194.500 198.727,194.557 198.833,194.626 198.833 C 194.695 198.833,194.850 199.077,194.970 199.375 C 195.090 199.673,195.259 200.047,195.344 200.206 C 195.430 200.365,195.500 200.609,195.500 200.748 C 195.500 200.971,197.109 201.000,209.484 201.000 L 223.469 201.000 223.831 199.375 C 224.030 198.481,224.300 197.412,224.431 197.000 C 224.561 196.588,224.668 196.087,224.667 195.888 C 224.666 195.444,225.300 192.544,225.499 192.083 C 225.578 191.900,225.731 191.225,225.839 190.583 C 225.947 189.942,226.140 188.962,226.268 188.406 C 226.396 187.850,226.500 187.269,226.500 187.114 C 226.500 186.960,226.567 186.833,226.649 186.833 C 226.731 186.833,226.922 186.140,227.072 185.292 C 227.223 184.444,227.412 183.600,227.492 183.417 C 227.573 183.233,227.726 182.483,227.832 181.750 C 228.046 180.273,228.286 179.233,228.516 178.794 C 228.599 178.635,228.667 178.204,228.667 177.836 C 228.667 177.468,228.742 177.167,228.833 177.167 C 228.925 177.167,229.003 176.923,229.007 176.625 C 229.011 176.327,229.123 175.783,229.255 175.417 C 229.387 175.050,229.496 174.508,229.497 174.212 C 229.499 173.916,229.607 173.391,229.738 173.045 C 229.869 172.699,230.109 171.817,230.272 171.083 C 230.593 169.632,230.922 169.013,231.375 169.005 C 231.535 169.002,231.667 168.925,231.667 168.833 C 231.667 168.742,232.096 168.667,232.620 168.667 C 233.792 168.667,235.159 169.243,235.164 169.740 C 235.169 170.338,235.899 173.749,236.033 173.806 C 236.107 173.836,236.168 174.099,236.169 174.389 C 236.171 174.679,236.321 175.507,236.503 176.229 C 236.684 176.951,236.833 177.753,236.833 178.010 C 236.833 178.268,237.021 179.252,237.250 180.198 C 237.479 181.143,237.666 182.198,237.666 182.542 C 237.667 182.885,237.742 183.167,237.833 183.167 C 237.925 183.167,238.000 183.349,238.000 183.572 C 238.000 183.796,238.077 184.180,238.171 184.428 C 238.265 184.675,238.451 185.523,238.584 186.313 C 238.926 188.342,239.256 190.041,239.365 190.333 C 239.494 190.679,239.774 192.025,240.006 193.417 C 240.114 194.058,240.257 194.733,240.326 194.917 C 240.394 195.100,240.590 196.112,240.761 197.167 C 240.932 198.221,241.121 199.121,241.181 199.167 C 241.294 199.253,241.506 200.254,241.924 202.667 C 242.058 203.446,242.241 204.233,242.329 204.417 C 242.416 204.600,242.510 204.969,242.536 205.237 C 242.663 206.541,243.849 204.540,244.283 202.290 C 244.332 202.036,244.438 201.788,244.519 201.738 C 244.600 201.688,244.667 201.501,244.667 201.323 C 244.667 201.146,244.732 201.000,244.812 201.000 C 244.892 201.000,245.005 200.701,245.064 200.336 C 245.122 199.970,245.293 199.389,245.442 199.044 C 246.077 197.583,246.289 197.008,246.777 195.417 C 246.917 194.958,247.213 194.228,247.433 193.793 C 247.653 193.358,247.833 192.851,247.833 192.666 C 247.833 192.480,247.902 192.199,247.986 192.039 C 248.070 191.880,248.227 191.511,248.335 191.219 C 248.622 190.445,250.568 189.960,251.593 190.408 C 252.669 190.877,252.723 190.920,252.890 191.429 C 252.978 191.697,253.099 191.954,253.159 192.000 C 253.220 192.046,253.368 192.327,253.488 192.625 C 253.609 192.923,253.773 193.167,253.854 193.167 C 253.934 193.167,254.000 193.253,254.000 193.358 C 254.000 193.463,254.247 193.932,254.548 194.399 C 254.849 194.867,255.196 195.475,255.318 195.750 C 255.680 196.563,256.369 197.871,256.503 198.000 C 256.551 198.046,256.682 198.292,256.794 198.548 C 256.907 198.803,257.078 199.103,257.175 199.215 C 257.272 199.326,257.478 199.679,257.634 200.000 L 257.917 200.583 273.792 200.626 C 284.182 200.654,289.667 200.726,289.667 200.834 C 289.667 200.925,289.921 201.000,290.232 201.000 C 290.581 201.000,290.834 201.096,290.894 201.250 C 291.100 201.788,291.534 201.410,293.428 199.042 C 298.053 193.258,301.615 186.561,303.430 180.239 C 303.665 179.420,303.959 178.444,304.084 178.070 C 305.863 172.728,306.271 162.056,304.985 154.500 C 302.747 141.358,294.230 127.470,283.870 120.073 C 278.559 116.281,275.829 114.752,270.500 112.584 C 255.936 106.661,236.681 108.014,223.445 115.890 C 222.727 116.317,222.102 116.667,222.058 116.667 C 221.895 116.667,218.712 118.828,217.195 119.967 C 212.457 123.528,207.755 128.484,204.592 133.250 C 202.542 136.339,202.242 136.844,201.147 139.042 C 200.566 140.210,200.045 141.167,199.991 141.167 C 199.937 141.167,199.496 140.360,199.011 139.375 C 189.470 120.001,167.544 107.310,146.417 108.932 " stroke="none" fill="#a4c324" fill-rule="evenodd"></path><path id="path2" d="M148.208 108.791 C 148.919 108.822,150.081 108.822,150.792 108.791 C 151.502 108.759,150.921 108.734,149.500 108.734 C 148.079 108.734,147.498 108.759,148.208 108.791 M249.208 108.791 C 249.919 108.822,251.081 108.822,251.792 108.791 C 252.502 108.759,251.921 108.734,250.500 108.734 C 249.079 108.734,248.498 108.759,249.208 108.791 M144.794 108.951 C 145.001 108.991,145.301 108.990,145.460 108.948 C 145.620 108.906,145.450 108.874,145.083 108.875 C 144.717 108.877,144.586 108.911,144.794 108.951 M153.794 108.951 C 154.001 108.991,154.301 108.990,154.460 108.948 C 154.620 108.906,154.450 108.874,154.083 108.875 C 153.717 108.877,153.586 108.911,153.794 108.951 M245.627 108.951 C 245.834 108.991,246.134 108.990,246.294 108.948 C 246.453 108.906,246.283 108.874,245.917 108.875 C 245.550 108.877,245.420 108.911,245.627 108.951 M254.627 108.951 C 254.834 108.991,255.134 108.990,255.294 108.948 C 255.453 108.906,255.283 108.874,254.917 108.875 C 254.550 108.877,254.420 108.911,254.627 108.951 M142.875 109.115 C 143.035 109.157,143.298 109.157,143.458 109.115 C 143.619 109.073,143.487 109.039,143.167 109.039 C 142.846 109.039,142.715 109.073,142.875 109.115 M134.562 110.660 C 133.634 110.917,132.734 111.217,132.562 111.326 C 132.391 111.436,132.362 111.492,132.500 111.451 C 132.637 111.410,133.612 111.133,134.667 110.836 C 135.721 110.539,136.615 110.267,136.653 110.231 C 136.811 110.084,136.155 110.219,134.562 110.660 M162.417 110.259 C 162.656 110.354,166.686 111.520,167.083 111.610 C 168.055 111.829,166.075 111.111,164.503 110.675 C 162.966 110.248,161.806 110.017,162.417 110.259 M236.333 110.434 C 234.424 110.945,233.138 111.360,233.217 111.439 C 233.262 111.484,233.926 111.332,234.691 111.102 C 235.457 110.871,236.458 110.574,236.917 110.442 C 238.016 110.125,237.513 110.118,236.333 110.434 M263.367 110.256 C 263.416 110.305,264.282 110.566,265.291 110.837 C 266.300 111.107,267.267 111.373,267.438 111.427 C 267.741 111.522,267.741 111.519,267.441 111.328 C 266.946 111.012,263.115 110.004,263.367 110.256 M129.084 112.522 C 128.176 112.891,127.836 113.118,128.499 112.913 C 129.112 112.724,130.277 112.191,130.083 112.188 C 129.992 112.186,129.542 112.337,129.084 112.522 M270.000 112.305 C 270.137 112.390,270.438 112.510,270.667 112.571 C 270.956 112.649,271.007 112.635,270.833 112.528 C 270.696 112.443,270.396 112.324,270.167 112.262 C 269.877 112.185,269.826 112.198,270.000 112.305 M169.667 112.537 C 169.896 112.637,171.340 113.299,172.875 114.009 C 174.410 114.719,175.667 115.276,175.667 115.247 C 175.667 115.010,169.830 112.310,169.392 112.345 C 169.314 112.351,169.438 112.438,169.667 112.537 M228.667 113.083 C 228.438 113.214,228.325 113.322,228.417 113.322 C 228.508 113.322,228.771 113.214,229.000 113.083 C 229.229 112.952,229.342 112.845,229.250 112.845 C 229.158 112.845,228.896 112.952,228.667 113.083 M126.033 113.827 C 125.281 114.191,124.667 114.525,124.667 114.570 C 124.667 114.650,127.504 113.385,127.648 113.240 C 127.876 113.013,127.236 113.245,126.033 113.827 M272.352 113.240 C 272.502 113.391,275.333 114.648,275.333 114.565 C 275.333 114.468,272.608 113.167,272.406 113.167 C 272.335 113.167,272.311 113.200,272.352 113.240 M225.896 114.348 C 223.365 115.644,220.227 117.474,219.958 117.809 C 219.741 118.080,220.335 117.747,222.083 116.617 C 222.633 116.262,224.202 115.415,225.569 114.736 C 226.936 114.057,228.092 113.463,228.138 113.417 C 228.426 113.130,227.619 113.465,225.896 114.348 M122.791 115.480 C 122.172 115.827,121.610 116.171,121.541 116.243 C 121.390 116.402,122.966 115.618,123.712 115.163 C 124.665 114.582,123.954 114.826,122.791 115.480 M276.000 114.994 C 276.389 115.284,278.167 116.181,278.167 116.088 C 278.167 116.042,277.698 115.761,277.125 115.462 C 275.962 114.856,275.628 114.717,276.000 114.994 M177.680 116.516 C 180.015 117.966,180.244 118.093,180.093 117.849 C 179.967 117.646,176.120 115.333,175.908 115.333 C 175.835 115.333,176.632 115.865,177.680 116.516 M278.417 116.287 C 278.508 116.374,279.483 117.030,280.583 117.744 C 281.683 118.459,283.202 119.521,283.958 120.103 C 284.715 120.686,285.333 121.104,285.333 121.032 C 285.333 120.786,280.034 117.030,278.823 116.418 C 278.508 116.259,278.325 116.200,278.417 116.287 M120.208 116.955 C 119.635 117.295,119.167 117.628,119.167 117.696 C 119.167 117.837,121.127 116.699,121.263 116.478 C 121.399 116.259,121.333 116.289,120.208 116.955 M180.833 118.394 C 180.833 118.440,181.058 118.638,181.333 118.833 C 181.608 119.029,181.833 119.152,181.833 119.106 C 181.833 119.060,181.608 118.862,181.333 118.667 C 181.058 118.471,180.833 118.348,180.833 118.394 M116.215 119.730 C 112.299 122.682,106.196 128.771,105.281 130.639 C 105.206 130.792,105.393 130.618,105.697 130.252 C 109.622 125.533,112.878 122.422,117.596 118.884 C 117.864 118.683,118.030 118.514,117.965 118.509 C 117.901 118.504,117.113 119.054,116.215 119.730 M217.726 119.300 C 215.893 120.618,215.508 120.924,215.428 121.124 C 215.382 121.238,215.895 120.901,216.567 120.374 C 217.240 119.847,218.006 119.252,218.270 119.051 C 219.063 118.447,218.648 118.637,217.726 119.300 M182.000 119.215 C 182.000 119.252,182.656 119.794,183.458 120.418 C 184.260 121.043,184.767 121.383,184.583 121.173 C 184.101 120.623,182.000 119.030,182.000 119.215 M285.750 121.449 C 285.933 121.633,286.997 122.620,288.114 123.644 C 291.230 126.500,295.156 131.135,296.991 134.125 C 297.287 134.606,297.566 135.000,297.611 135.000 C 297.807 135.000,296.335 132.771,294.859 130.833 C 292.474 127.701,287.698 122.677,286.000 121.515 C 285.556 121.211,285.496 121.195,285.750 121.449 M214.075 122.195 C 212.569 123.502,209.707 126.333,209.132 127.083 C 208.851 127.450,209.475 126.880,210.519 125.816 C 211.563 124.753,213.054 123.310,213.833 122.611 C 214.612 121.911,215.209 121.337,215.158 121.336 C 215.108 121.335,214.620 121.721,214.075 122.195 M185.167 121.691 C 187.102 123.614,191.150 127.460,190.842 127.083 C 190.200 126.296,186.359 122.546,185.601 121.966 C 185.225 121.678,185.029 121.555,185.167 121.691 M192.041 128.667 C 192.538 129.262,193.267 130.181,193.660 130.708 C 194.052 131.235,194.407 131.667,194.447 131.667 C 194.627 131.667,193.007 129.542,192.117 128.610 L 191.136 127.583 192.041 128.667 M207.678 128.769 C 207.208 129.283,206.595 130.052,206.316 130.477 L 205.809 131.250 206.363 130.585 C 206.667 130.220,207.312 129.451,207.796 128.877 C 208.889 127.580,208.821 127.518,207.678 128.769 M104.725 131.375 C 104.023 132.165,102.388 134.667,102.954 134.083 C 103.183 133.848,105.175 131.000,105.111 131.000 C 105.082 131.000,104.908 131.169,104.725 131.375 M195.342 133.042 C 195.815 133.752,196.237 134.333,196.279 134.333 C 196.438 134.333,195.594 132.996,195.050 132.387 C 194.612 131.897,194.680 132.048,195.342 133.042 M203.348 134.756 C 202.583 135.997,201.992 137.048,202.035 137.090 C 202.078 137.133,202.323 136.781,202.581 136.308 C 202.838 135.835,203.437 134.879,203.911 134.183 C 205.007 132.572,205.048 132.500,204.879 132.500 C 204.802 132.500,204.113 133.515,203.348 134.756 M197.158 135.917 C 197.458 136.467,197.782 136.992,197.879 137.083 C 197.975 137.175,197.809 136.800,197.509 136.250 C 197.209 135.700,196.884 135.175,196.788 135.083 C 196.691 134.992,196.858 135.367,197.158 135.917 M101.470 136.292 C 100.976 137.049,99.332 140.249,99.337 140.444 C 99.338 140.521,99.700 139.908,100.140 139.083 C 100.581 138.258,101.187 137.152,101.487 136.625 C 102.100 135.546,102.090 135.340,101.470 136.292 M298.773 137.125 C 299.122 137.744,299.689 138.775,300.033 139.417 C 300.377 140.058,300.660 140.519,300.662 140.439 C 300.670 140.186,298.422 136.005,298.277 136.002 C 298.201 136.001,298.424 136.506,298.773 137.125 M201.623 137.713 C 201.384 138.078,199.987 140.742,199.856 141.083 C 199.632 141.665,200.250 140.660,201.061 139.125 C 201.952 137.435,202.181 136.861,201.623 137.713 M198.839 138.972 C 199.236 139.718,199.590 140.299,199.625 140.264 C 199.723 140.166,198.533 137.873,198.312 137.737 C 198.204 137.670,198.441 138.226,198.839 138.972 M98.694 141.757 C 98.414 142.370,98.468 142.501,98.770 141.944 C 98.911 141.683,98.995 141.439,98.957 141.401 C 98.919 141.363,98.800 141.523,98.694 141.757 M301.380 142.333 C 301.428 142.471,301.813 143.459,302.234 144.529 C 302.655 145.599,303.000 146.568,303.000 146.682 C 303.000 146.796,303.049 146.840,303.109 146.780 C 303.239 146.650,301.885 142.897,301.535 142.417 C 301.402 142.233,301.332 142.196,301.380 142.333 M98.277 142.624 C 98.093 142.921,97.171 145.560,97.230 145.619 C 97.264 145.653,97.561 144.988,97.891 144.141 C 98.408 142.815,98.582 142.130,98.277 142.624 M303.857 149.333 C 303.857 149.471,303.921 149.733,304.000 149.917 C 304.090 150.127,304.143 150.158,304.143 150.000 C 304.143 149.862,304.079 149.600,304.000 149.417 C 303.910 149.207,303.857 149.176,303.857 149.333 M170.708 152.282 C 170.869 152.323,171.131 152.323,171.292 152.282 C 171.452 152.240,171.321 152.205,171.000 152.205 C 170.679 152.205,170.548 152.240,170.708 152.282 M172.556 152.832 C 173.069 153.282,173.134 153.442,173.240 154.514 C 173.304 155.166,173.392 155.664,173.435 155.620 C 173.944 155.112,172.846 152.333,172.136 152.333 C 172.055 152.333,172.244 152.558,172.556 152.832 M95.017 153.362 C 94.468 156.082,93.880 161.535,94.031 162.503 C 94.066 162.730,94.152 162.092,94.220 161.083 C 94.370 158.880,94.773 155.546,95.095 153.845 C 95.223 153.164,95.299 152.577,95.262 152.540 C 95.226 152.503,95.115 152.873,95.017 153.362 M304.731 153.047 C 304.888 153.703,305.449 157.525,305.592 158.917 C 305.658 159.558,305.745 159.991,305.785 159.878 C 305.959 159.395,305.005 152.932,304.722 152.676 C 304.666 152.625,304.670 152.792,304.731 153.047 M168.583 154.167 C 168.518 154.728,168.500 155.223,168.544 155.266 C 168.587 155.309,168.674 154.884,168.738 154.321 C 168.802 153.759,168.820 153.264,168.778 153.222 C 168.736 153.180,168.648 153.605,168.583 154.167 M305.903 164.167 C 305.903 165.862,305.927 166.556,305.958 165.708 C 305.988 164.860,305.988 163.473,305.958 162.625 C 305.927 161.777,305.903 162.471,305.903 164.167 M167.709 162.083 C 167.711 162.450,167.745 162.580,167.785 162.373 C 167.824 162.166,167.823 161.866,167.781 161.706 C 167.739 161.547,167.707 161.717,167.709 162.083 M174.460 162.958 C 174.562 164.030,174.627 164.117,174.647 163.208 C 174.658 162.727,174.607 162.333,174.533 162.333 C 174.460 162.333,174.427 162.615,174.460 162.958 M167.444 163.444 C 167.383 163.506,167.342 163.824,167.352 164.153 L 167.372 164.750 167.502 164.083 C 167.638 163.383,167.627 163.262,167.444 163.444 M174.706 164.750 C 174.706 165.025,174.763 165.475,174.833 165.750 C 175.010 166.443,175.018 165.761,174.843 164.917 C 174.727 164.356,174.705 164.330,174.706 164.750 M94.024 166.167 C 93.976 167.952,94.794 174.798,95.166 175.720 C 95.386 176.266,95.361 175.823,95.100 174.553 C 94.757 172.876,94.500 170.872,94.259 167.986 C 94.140 166.573,94.035 165.754,94.024 166.167 M167.028 166.953 C 166.746 169.191,166.612 170.759,166.708 170.667 C 166.823 170.557,167.375 165.653,167.283 165.560 C 167.244 165.521,167.129 166.148,167.028 166.953 M175.016 167.250 C 175.010 167.800,175.065 168.344,175.138 168.460 C 175.212 168.575,175.242 168.200,175.207 167.626 C 175.120 166.212,175.029 166.033,175.016 167.250 M305.507 170.208 C 305.328 171.856,304.994 174.064,304.732 175.333 C 304.667 175.647,304.686 175.688,304.809 175.498 C 305.090 175.065,306.014 168.333,305.793 168.333 C 305.747 168.333,305.618 169.177,305.507 170.208 M232.042 168.782 C 232.202 168.823,232.465 168.823,232.625 168.782 C 232.785 168.740,232.654 168.705,232.333 168.705 C 232.012 168.705,231.881 168.740,232.042 168.782 M233.014 168.727 C 233.210 168.896,234.018 168.997,233.921 168.840 C 233.862 168.745,233.618 168.667,233.379 168.667 C 233.140 168.667,232.976 168.694,233.014 168.727 M175.383 169.833 C 175.383 170.337,175.415 170.544,175.453 170.292 C 175.491 170.040,175.491 169.627,175.453 169.375 C 175.415 169.123,175.383 169.329,175.383 169.833 M230.792 169.412 C 230.631 169.632,230.500 169.909,230.500 170.027 C 230.500 170.145,230.623 170.055,230.774 169.829 C 230.925 169.602,231.165 169.323,231.306 169.208 C 231.520 169.035,231.523 169.001,231.324 169.005 C 231.191 169.008,230.952 169.191,230.792 169.412 M235.028 170.250 C 235.031 170.433,235.093 170.771,235.167 171.000 L 235.300 171.417 235.305 171.000 C 235.308 170.771,235.245 170.433,235.167 170.250 L 235.023 169.917 235.028 170.250 M175.762 172.011 C 175.808 172.796,175.912 173.659,175.992 173.928 C 176.193 174.601,176.181 174.355,175.911 172.333 L 175.678 170.583 175.762 172.011 M166.529 171.532 C 166.513 171.962,166.425 172.360,166.333 172.417 C 166.242 172.473,166.177 172.796,166.189 173.135 C 166.205 173.568,166.232 173.627,166.280 173.333 C 166.317 173.104,166.424 172.762,166.518 172.573 C 166.612 172.385,166.660 171.897,166.624 171.490 L 166.558 170.750 166.529 171.532 M235.441 172.250 C 235.497 172.708,235.571 173.115,235.605 173.153 C 235.735 173.299,235.636 172.067,235.492 171.750 C 235.389 171.526,235.373 171.689,235.441 172.250 M171.361 173.458 C 171.346 173.848,171.404 174.167,171.490 174.167 C 171.576 174.167,171.676 174.448,171.712 174.792 L 171.777 175.417 171.805 174.708 C 171.821 174.319,171.763 174.000,171.677 174.000 C 171.591 174.000,171.491 173.719,171.455 173.375 L 171.389 172.750 171.361 173.458 M229.566 173.734 C 229.517 173.863,229.503 174.219,229.535 174.526 C 229.586 175.015,229.603 174.986,229.673 174.292 C 229.754 173.480,229.724 173.322,229.566 173.734 M166.121 174.269 C 166.065 174.551,165.979 175.375,165.930 176.100 L 165.841 177.417 166.084 175.750 C 166.315 174.165,166.340 173.175,166.121 174.269 M236.005 174.887 C 236.001 175.003,236.439 176.925,236.733 178.083 C 236.888 178.695,236.710 177.264,236.505 176.250 C 236.324 175.359,236.018 174.525,236.005 174.887 M170.539 175.500 C 170.539 175.821,170.573 175.952,170.615 175.792 C 170.657 175.631,170.657 175.369,170.615 175.208 C 170.573 175.048,170.539 175.179,170.539 175.500 M176.198 175.500 C 176.194 175.729,176.251 176.254,176.325 176.667 C 176.425 177.229,176.461 177.292,176.470 176.917 C 176.476 176.642,176.419 176.117,176.343 175.750 C 176.257 175.333,176.202 175.239,176.198 175.500 M171.836 176.431 C 171.837 176.698,171.910 177.029,171.998 177.167 C 172.106 177.337,172.125 177.204,172.055 176.750 C 171.929 175.926,171.833 175.786,171.836 176.431 M170.167 177.417 C 170.167 177.646,170.195 177.833,170.231 177.833 C 170.266 177.833,170.330 177.646,170.374 177.417 C 170.418 177.188,170.389 177.000,170.310 177.000 C 170.231 177.000,170.167 177.188,170.167 177.417 M165.580 178.891 C 165.516 179.487,165.497 180.074,165.537 180.196 C 165.578 180.317,165.663 179.862,165.726 179.184 C 165.789 178.506,165.808 177.919,165.768 177.879 C 165.728 177.840,165.644 178.295,165.580 178.891 M176.539 178.333 C 176.539 178.654,176.573 178.785,176.615 178.625 C 176.657 178.465,176.657 178.202,176.615 178.042 C 176.573 177.881,176.539 178.012,176.539 178.333 M236.722 178.903 C 236.783 179.063,236.833 179.300,236.833 179.430 C 236.833 179.560,236.898 179.667,236.977 179.667 C 237.170 179.667,237.006 178.857,236.785 178.720 C 236.675 178.652,236.651 178.720,236.722 178.903 M169.922 179.922 C 169.857 180.529,169.839 181.061,169.882 181.104 C 169.925 181.147,170.013 180.685,170.078 180.078 C 170.143 179.471,170.161 178.939,170.118 178.896 C 170.075 178.853,169.987 179.315,169.922 179.922 M172.194 179.083 C 172.190 179.267,172.287 179.942,172.408 180.583 C 172.530 181.225,172.634 181.525,172.641 181.250 C 172.647 180.975,172.551 180.300,172.426 179.750 C 172.302 179.200,172.198 178.900,172.194 179.083 M228.081 180.375 C 227.950 180.736,227.528 183.580,227.595 183.649 C 227.690 183.746,227.767 183.408,228.035 181.708 C 228.258 180.293,228.273 179.844,228.081 180.375 M165.298 181.333 C 165.257 181.608,165.286 181.833,165.362 181.833 C 165.438 181.833,165.500 181.608,165.500 181.333 C 165.500 181.058,165.471 180.833,165.436 180.833 C 165.400 180.833,165.338 181.058,165.298 181.333 M232.333 181.316 C 232.333 181.411,232.446 181.446,232.583 181.394 C 232.757 181.327,232.833 181.405,232.833 181.649 C 232.833 181.842,232.906 182.000,232.995 182.000 C 233.264 182.000,232.904 181.255,232.606 181.196 C 232.456 181.166,232.333 181.220,232.333 181.316 M169.589 182.922 C 169.524 183.529,169.506 184.061,169.548 184.104 C 169.591 184.147,169.679 183.685,169.744 183.078 C 169.809 182.471,169.828 181.939,169.785 181.896 C 169.742 181.853,169.654 182.315,169.589 182.922 M172.528 182.342 C 172.513 182.667,172.569 183.005,172.653 183.092 C 172.736 183.179,172.839 183.438,172.880 183.667 C 172.943 184.016,172.958 183.996,172.977 183.542 C 172.990 183.244,172.930 183.000,172.843 183.000 C 172.757 183.000,172.657 182.719,172.621 182.375 L 172.556 181.750 172.528 182.342 M97.008 182.277 C 96.996 182.563,98.090 185.375,98.500 186.114 C 98.936 186.900,98.890 186.762,97.850 184.167 C 97.391 183.021,97.012 182.171,97.008 182.277 M237.798 183.667 C 237.838 183.942,237.900 184.167,237.936 184.167 C 237.971 184.167,238.000 183.942,238.000 183.667 C 238.000 183.392,237.938 183.167,237.862 183.167 C 237.786 183.167,237.757 183.392,237.798 183.667 M302.023 184.439 C 301.735 185.145,301.536 185.758,301.579 185.801 C 301.622 185.844,301.727 185.700,301.812 185.481 C 301.897 185.262,302.126 184.680,302.322 184.187 C 302.518 183.693,302.649 183.260,302.612 183.223 C 302.575 183.186,302.310 183.734,302.023 184.439 M233.435 184.083 C 233.572 184.696,233.668 184.829,233.664 184.403 C 233.663 184.227,233.585 183.971,233.492 183.833 C 233.369 183.651,233.353 183.718,233.435 184.083 M173.114 185.417 C 173.165 186.150,173.236 186.781,173.270 186.819 C 173.390 186.951,173.314 185.414,173.167 184.750 C 173.059 184.260,173.045 184.437,173.114 185.417 M186.042 184.282 C 186.202 184.323,186.465 184.323,186.625 184.282 C 186.785 184.240,186.654 184.205,186.333 184.205 C 186.012 184.205,185.881 184.240,186.042 184.282 M184.898 184.497 C 184.705 184.575,184.498 184.776,184.439 184.944 C 184.345 185.215,184.356 185.220,184.541 184.985 C 184.656 184.840,184.975 184.639,185.250 184.540 C 185.525 184.441,185.637 184.358,185.500 184.357 C 185.362 184.356,185.092 184.418,184.898 184.497 M187.583 184.535 C 188.265 184.774,188.664 185.150,188.680 185.567 C 188.688 185.776,188.729 185.826,188.783 185.692 C 188.997 185.154,188.026 184.292,187.267 184.346 C 187.166 184.354,187.308 184.439,187.583 184.535 M238.126 185.083 C 238.170 185.313,238.234 185.500,238.269 185.500 C 238.305 185.500,238.333 185.313,238.333 185.083 C 238.333 184.854,238.269 184.667,238.190 184.667 C 238.111 184.667,238.082 184.854,238.126 185.083 M169.353 185.542 C 169.342 185.794,169.268 186.000,169.188 186.000 C 169.108 186.000,168.997 186.581,168.941 187.292 C 168.885 188.002,168.763 189.258,168.669 190.083 C 168.575 190.908,168.470 192.071,168.435 192.667 L 168.371 193.750 168.504 192.833 C 168.683 191.611,168.991 188.843,169.099 187.500 C 169.147 186.904,169.264 186.258,169.360 186.064 C 169.455 185.869,169.497 185.569,169.452 185.397 C 169.396 185.177,169.366 185.221,169.353 185.542 M233.845 186.053 C 233.906 186.528,234.032 187.142,234.126 187.417 C 234.220 187.692,234.392 188.552,234.508 189.330 C 234.674 190.443,235.167 191.726,235.167 191.045 C 235.167 190.965,235.097 190.829,235.012 190.742 C 234.926 190.655,234.743 189.818,234.605 188.883 C 234.467 187.947,234.274 187.034,234.177 186.852 C 234.080 186.670,234.000 186.259,234.000 185.937 C 234.000 185.616,233.940 185.316,233.867 185.271 C 233.795 185.226,233.784 185.578,233.845 186.053 M177.542 185.917 C 177.544 186.283,177.578 186.414,177.618 186.206 C 177.658 185.999,177.656 185.699,177.615 185.540 C 177.573 185.380,177.540 185.550,177.542 185.917 M164.705 186.667 C 164.705 186.987,164.740 187.119,164.782 186.958 C 164.823 186.798,164.823 186.535,164.782 186.375 C 164.740 186.215,164.705 186.346,164.705 186.667 M188.952 186.503 C 189.081 186.996,189.299 187.060,189.206 186.578 C 189.163 186.352,189.069 186.167,188.996 186.167 C 188.924 186.167,188.904 186.318,188.952 186.503 M238.487 187.125 C 238.566 187.700,238.578 187.712,238.633 187.271 C 238.666 187.008,238.627 186.727,238.547 186.647 C 238.463 186.563,238.437 186.767,238.487 187.125 M177.854 187.805 C 177.916 188.325,178.096 189.762,178.253 191.000 C 178.411 192.237,178.572 193.625,178.611 194.083 C 178.651 194.542,178.751 195.067,178.834 195.250 C 178.918 195.433,179.017 195.771,179.054 196.000 C 179.104 196.307,179.127 196.261,179.144 195.825 C 179.156 195.500,179.098 195.162,179.015 195.075 C 178.931 194.988,178.827 194.504,178.783 194.000 C 178.740 193.496,178.579 192.108,178.427 190.917 C 178.274 189.725,178.106 188.355,178.054 187.872 C 178.001 187.389,177.909 186.964,177.849 186.926 C 177.789 186.889,177.791 187.285,177.854 187.805 M99.004 187.220 C 98.993 187.646,102.359 193.833,102.602 193.833 C 102.678 193.833,101.918 192.440,101.639 192.068 C 101.564 191.967,100.941 190.805,100.255 189.484 C 99.568 188.164,99.005 187.145,99.004 187.220 M173.461 188.417 C 173.507 189.150,173.573 189.781,173.606 189.819 C 173.722 189.952,173.633 187.915,173.505 187.500 C 173.434 187.271,173.415 187.683,173.461 188.417 M183.220 187.526 C 182.913 188.171,182.552 189.046,182.319 189.708 C 182.198 190.052,182.046 190.333,181.980 190.333 C 181.914 190.333,181.808 190.577,181.744 190.875 C 181.680 191.173,181.573 191.492,181.507 191.583 C 181.275 191.901,181.178 192.333,181.339 192.333 C 181.427 192.333,181.500 192.188,181.500 192.010 C 181.500 191.832,181.575 191.640,181.667 191.583 C 181.758 191.527,181.833 191.340,181.833 191.169 C 181.833 190.997,181.938 190.752,182.066 190.624 C 182.194 190.496,182.438 189.985,182.608 189.487 C 182.778 188.990,182.973 188.558,183.042 188.528 C 183.110 188.497,183.167 188.343,183.167 188.186 C 183.167 188.029,183.250 187.817,183.352 187.715 C 183.454 187.613,183.508 187.441,183.472 187.332 C 183.436 187.224,183.323 187.311,183.220 187.526 M300.405 188.202 C 300.136 188.769,299.449 190.056,298.877 191.062 C 298.305 192.069,297.867 192.922,297.904 192.959 C 297.940 192.996,298.268 192.514,298.632 191.888 C 299.499 190.397,301.038 187.316,300.957 187.234 C 300.922 187.199,300.673 187.634,300.405 188.202 M238.783 188.455 C 238.913 189.292,239.000 189.359,239.000 188.621 C 239.000 188.290,238.929 187.976,238.843 187.923 C 238.750 187.865,238.726 188.080,238.783 188.455 M230.872 188.500 C 230.872 188.821,230.906 188.952,230.948 188.792 C 230.990 188.631,230.990 188.369,230.948 188.208 C 230.906 188.048,230.872 188.179,230.872 188.500 M226.271 188.423 C 226.213 188.572,226.173 188.819,226.181 188.972 C 226.189 189.125,226.261 189.029,226.342 188.758 C 226.499 188.232,226.444 187.972,226.271 188.423 M190.170 189.088 C 190.168 189.182,190.380 189.670,190.641 190.173 C 190.901 190.675,191.167 191.367,191.231 191.710 C 191.296 192.053,191.402 192.333,191.467 192.333 C 191.532 192.333,191.687 192.563,191.811 192.843 C 191.935 193.123,192.079 193.309,192.132 193.257 C 192.185 193.204,192.139 193.072,192.031 192.964 C 191.922 192.855,191.833 192.632,191.833 192.467 C 191.833 192.302,191.764 192.167,191.680 192.167 C 191.596 192.167,191.476 191.937,191.414 191.656 C 191.294 191.110,190.175 188.800,190.170 189.088 M230.270 190.513 C 230.121 191.170,229.997 191.867,229.993 192.062 C 229.984 192.465,229.635 193.832,229.476 194.083 C 229.316 194.336,228.959 196.182,229.052 196.275 C 229.136 196.359,229.500 194.842,229.500 194.408 C 229.500 194.275,229.575 194.167,229.667 194.167 C 229.758 194.167,229.833 194.007,229.833 193.811 C 229.833 193.615,229.905 193.184,229.993 192.853 C 230.253 191.867,230.680 189.458,230.607 189.385 C 230.570 189.348,230.418 189.855,230.270 190.513 M239.027 189.758 C 239.012 190.038,239.063 190.338,239.140 190.425 C 239.283 190.587,239.505 191.568,239.838 193.500 C 240.133 195.214,240.164 195.333,240.322 195.333 C 240.408 195.333,240.411 195.140,240.328 194.875 C 240.249 194.623,240.103 193.967,240.002 193.417 C 239.902 192.867,239.748 192.097,239.660 191.706 C 239.572 191.315,239.500 190.846,239.500 190.664 C 239.500 190.482,239.430 190.333,239.344 190.333 C 239.258 190.333,239.158 190.090,239.121 189.792 L 239.053 189.250 239.027 189.758 M225.926 190.259 C 225.863 190.594,225.845 190.901,225.886 190.941 C 225.927 190.982,226.011 190.742,226.074 190.407 C 226.137 190.073,226.155 189.766,226.114 189.725 C 226.073 189.684,225.989 189.925,225.926 190.259 M173.678 190.448 C 173.672 190.649,173.742 190.860,173.833 190.917 C 174.030 191.039,174.030 190.875,173.833 190.417 C 173.695 190.095,173.690 190.096,173.678 190.448 M249.125 190.550 C 248.781 190.647,248.500 190.783,248.500 190.853 C 248.500 190.923,248.819 190.876,249.208 190.750 C 249.598 190.623,250.067 190.486,250.250 190.446 C 250.504 190.390,250.484 190.372,250.167 190.374 C 249.938 190.375,249.469 190.454,249.125 190.550 M251.232 190.453 C 251.917 190.628,252.569 191.123,252.722 191.584 C 252.811 191.850,253.027 192.222,253.202 192.409 C 253.515 192.744,253.518 192.744,253.397 192.417 C 253.330 192.233,253.224 192.046,253.162 192.000 C 253.100 191.954,252.978 191.697,252.890 191.429 C 252.802 191.160,252.622 190.891,252.490 190.829 C 252.358 190.768,252.082 190.632,251.877 190.526 C 251.672 190.420,251.372 190.342,251.211 190.353 C 250.952 190.370,250.955 190.382,251.232 190.453 M164.000 191.583 C 164.000 191.904,164.029 192.167,164.065 192.167 C 164.101 192.167,164.161 191.904,164.198 191.583 C 164.236 191.262,164.206 191.000,164.133 191.000 C 164.060 191.000,164.000 191.262,164.000 191.583 M186.213 191.375 C 186.009 191.639,185.817 192.167,185.926 192.167 C 185.971 192.167,186.081 191.976,186.169 191.743 C 186.353 191.259,186.988 191.425,187.013 191.964 C 187.022 192.153,187.056 192.176,187.114 192.032 C 187.297 191.575,186.505 190.998,186.213 191.375 M225.653 191.708 C 225.604 192.066,225.629 192.271,225.713 192.187 C 225.794 192.106,225.833 191.825,225.800 191.562 C 225.745 191.121,225.733 191.133,225.653 191.708 M174.042 191.917 C 174.044 192.283,174.078 192.414,174.118 192.206 C 174.158 191.999,174.156 191.699,174.115 191.540 C 174.073 191.380,174.040 191.550,174.042 191.917 M248.278 191.444 C 248.217 191.506,248.167 191.693,248.167 191.861 C 248.167 192.029,248.092 192.167,248.000 192.167 C 247.908 192.167,247.833 192.424,247.833 192.738 C 247.833 193.052,247.740 193.409,247.625 193.530 C 247.189 193.991,246.540 195.812,246.927 195.492 C 247.059 195.382,247.167 195.154,247.167 194.986 C 247.167 194.817,247.354 194.343,247.583 193.932 C 247.813 193.522,248.000 192.998,248.000 192.769 C 248.000 192.540,248.066 192.312,248.147 192.262 C 248.227 192.212,248.330 191.983,248.374 191.752 C 248.460 191.303,248.450 191.272,248.278 191.444 M150.500 192.118 C 150.122 192.256,149.500 192.864,149.500 193.096 C 149.500 193.208,149.765 193.035,150.088 192.712 L 150.677 192.123 151.926 192.204 C 153.382 192.297,153.988 192.694,154.017 193.571 C 154.026 193.853,154.095 194.271,154.170 194.500 C 154.255 194.759,154.271 194.539,154.214 193.917 C 154.108 192.771,154.026 192.629,153.259 192.265 C 152.719 192.009,151.042 191.920,150.500 192.118 M235.167 192.379 C 235.167 192.618,235.245 192.862,235.340 192.921 C 235.454 192.991,235.474 192.865,235.400 192.556 C 235.246 191.917,235.167 191.857,235.167 192.379 M185.346 193.124 C 185.140 193.560,184.827 194.217,184.652 194.583 C 184.476 194.950,184.340 195.400,184.349 195.583 L 184.367 195.917 184.484 195.583 C 184.549 195.400,184.729 194.971,184.884 194.630 C 185.040 194.290,185.167 193.896,185.167 193.755 C 185.167 193.615,185.242 193.500,185.333 193.500 C 185.425 193.500,185.500 193.365,185.500 193.200 C 185.500 193.035,185.589 192.811,185.697 192.703 C 185.806 192.594,185.855 192.466,185.807 192.418 C 185.759 192.370,185.552 192.688,185.346 193.124 M163.701 194.374 C 163.598 195.131,163.480 196.387,163.438 197.167 C 163.349 198.792,163.473 198.066,163.829 194.858 C 164.059 192.788,163.964 192.430,163.701 194.374 M297.564 193.375 C 296.990 194.348,296.952 194.431,297.245 194.083 C 297.583 193.680,297.875 193.167,297.766 193.167 C 297.722 193.167,297.631 193.260,297.564 193.375 M148.821 194.125 L 148.417 194.583 148.917 194.167 C 149.192 193.938,149.448 193.731,149.486 193.708 C 149.524 193.685,149.481 193.667,149.390 193.667 C 149.299 193.667,149.043 193.873,148.821 194.125 M192.328 193.991 C 192.590 194.481,192.830 194.561,192.609 194.085 C 192.503 193.856,192.358 193.669,192.286 193.668 C 192.214 193.667,192.233 193.812,192.328 193.991 M235.602 194.250 C 235.739 194.863,235.834 194.996,235.831 194.569 C 235.829 194.394,235.752 194.137,235.659 194.000 C 235.536 193.817,235.520 193.885,235.602 194.250 M254.187 194.083 C 254.335 194.267,254.498 194.529,254.548 194.667 C 254.626 194.879,254.642 194.876,254.654 194.651 C 254.661 194.505,254.498 194.242,254.292 194.067 C 253.920 193.753,253.919 193.753,254.187 194.083 M174.372 194.500 C 174.372 194.821,174.406 194.952,174.448 194.792 C 174.490 194.631,174.490 194.369,174.448 194.208 C 174.406 194.048,174.372 194.179,174.372 194.500 M168.019 195.213 C 167.917 195.798,167.846 196.684,167.861 197.180 C 167.884 197.909,167.900 197.955,167.943 197.417 C 167.973 197.050,168.079 196.200,168.179 195.528 C 168.405 194.015,168.273 193.754,168.019 195.213 M224.933 194.434 C 224.874 194.589,224.753 195.173,224.666 195.733 C 224.578 196.292,224.397 197.192,224.263 197.732 C 224.129 198.272,224.079 198.647,224.153 198.566 C 224.283 198.421,224.628 197.031,224.994 195.183 C 225.171 194.288,225.139 193.896,224.933 194.434 M180.202 194.672 C 180.091 194.850,180.000 195.100,180.000 195.229 C 180.000 195.552,179.568 196.355,179.303 196.523 C 179.129 196.633,179.136 196.662,179.333 196.663 C 179.637 196.665,180.167 195.780,180.167 195.270 C 180.167 195.066,180.255 194.811,180.364 194.703 C 180.472 194.594,180.526 194.470,180.483 194.427 C 180.439 194.384,180.313 194.494,180.202 194.672 M103.245 194.917 C 103.888 195.968,104.755 197.163,104.877 197.165 C 104.947 197.166,104.615 196.623,104.140 195.958 C 103.190 194.628,102.769 194.139,103.245 194.917 M147.934 195.414 C 147.695 195.653,147.500 195.906,147.500 195.976 C 147.500 196.046,147.369 196.251,147.208 196.432 C 147.048 196.612,146.780 197.020,146.613 197.338 C 146.392 197.760,146.382 197.826,146.575 197.583 C 146.720 197.400,146.951 197.118,147.086 196.956 C 147.222 196.795,147.333 196.623,147.333 196.574 C 147.333 196.471,147.595 196.136,148.135 195.550 C 148.655 194.985,148.481 194.867,147.934 195.414 M296.168 195.542 C 295.952 195.840,295.591 196.327,295.367 196.625 C 295.144 196.923,295.026 197.165,295.105 197.163 C 295.240 197.160,295.719 196.535,296.411 195.458 C 296.818 194.824,296.648 194.882,296.168 195.542 M188.503 195.433 C 188.502 195.533,188.606 195.833,188.735 196.099 C 188.864 196.366,189.242 197.165,189.576 197.875 C 190.169 199.140,190.379 199.462,190.225 198.870 C 190.106 198.418,188.507 195.224,188.503 195.433 M174.705 196.500 C 174.705 196.821,174.740 196.952,174.782 196.792 C 174.823 196.631,174.823 196.369,174.782 196.208 C 174.740 196.048,174.705 196.179,174.705 196.500 M183.884 196.690 C 183.409 197.668,183.313 198.000,183.505 198.000 C 183.594 198.000,183.667 197.869,183.667 197.708 C 183.668 197.548,183.821 197.165,184.009 196.858 C 184.196 196.550,184.324 196.223,184.294 196.131 C 184.263 196.039,184.079 196.290,183.884 196.690 M255.333 196.300 C 255.333 196.413,255.521 196.804,255.750 197.167 C 255.979 197.530,256.167 197.892,256.167 197.971 C 256.167 198.050,256.325 198.258,256.518 198.433 L 256.870 198.750 256.510 198.083 C 255.760 196.697,255.333 196.050,255.333 196.300 M193.500 196.732 C 193.500 196.842,193.591 197.045,194.055 197.972 C 194.208 198.277,194.333 198.633,194.333 198.764 C 194.333 198.894,194.390 199.001,194.458 199.001 C 194.608 199.003,195.000 199.810,195.000 200.117 C 195.000 200.236,195.075 200.333,195.167 200.333 C 195.258 200.333,195.333 200.521,195.333 200.750 L 195.333 201.167 209.542 201.126 L 223.750 201.085 209.625 201.042 C 197.685 201.005,195.500 200.962,195.500 200.766 C 195.500 200.638,195.275 200.106,195.000 199.583 C 194.725 199.061,194.500 198.537,194.500 198.420 C 194.500 198.303,194.387 198.114,194.250 198.000 C 194.112 197.886,194.000 197.623,194.000 197.417 C 194.000 197.210,193.887 196.947,193.750 196.833 C 193.612 196.719,193.500 196.674,193.500 196.732 M228.856 197.028 C 228.844 197.181,228.785 197.443,228.725 197.611 C 228.642 197.847,228.664 197.874,228.823 197.728 C 228.936 197.624,228.995 197.361,228.953 197.144 C 228.912 196.927,228.869 196.875,228.856 197.028 M250.513 197.458 C 250.521 197.633,250.560 197.666,250.610 197.542 C 250.778 197.126,251.462 197.310,251.693 197.833 C 251.815 198.108,251.971 198.333,252.041 198.333 C 252.110 198.333,252.167 198.458,252.167 198.611 C 252.167 198.764,252.215 198.840,252.275 198.781 C 252.581 198.475,251.582 197.167,251.042 197.167 C 250.632 197.167,250.503 197.238,250.513 197.458 M105.353 197.833 C 106.949 200.309,109.269 202.511,109.432 201.704 C 109.456 201.587,109.437 201.569,109.390 201.662 C 109.152 202.142,108.194 201.210,105.447 197.828 L 104.978 197.250 105.353 197.833 M293.984 198.458 C 291.837 201.203,291.123 201.848,290.894 201.250 C 290.841 201.112,290.637 201.001,290.441 201.002 C 290.073 201.005,290.214 201.127,291.131 201.597 C 291.451 201.761,292.825 200.301,294.555 197.958 C 295.339 196.897,294.914 197.269,293.984 198.458 M174.863 198.083 C 174.857 198.267,174.915 198.717,174.990 199.083 C 175.106 199.644,175.128 199.670,175.128 199.250 C 175.127 198.666,174.878 197.571,174.863 198.083 M250.231 198.074 C 250.180 198.206,250.168 198.449,250.204 198.615 C 250.245 198.803,250.302 198.713,250.356 198.375 C 250.446 197.807,250.387 197.665,250.231 198.074 M163.195 199.542 C 163.179 199.977,163.106 200.333,163.033 200.333 C 162.892 200.333,162.405 204.627,162.532 204.754 C 162.572 204.794,162.700 203.910,162.816 202.789 C 162.932 201.667,163.102 200.595,163.192 200.405 C 163.283 200.216,163.327 199.766,163.290 199.405 C 163.224 198.767,163.222 198.771,163.195 199.542 M245.340 199.458 C 244.994 200.414,244.852 201.167,245.018 201.167 C 245.100 201.167,245.168 200.960,245.170 200.708 C 245.172 200.456,245.319 199.931,245.496 199.542 C 245.672 199.152,245.761 198.833,245.692 198.833 C 245.623 198.833,245.465 199.115,245.340 199.458 M149.746 199.346 C 149.588 199.842,149.719 199.881,149.944 199.405 C 150.049 199.182,150.072 199.000,149.996 199.000 C 149.919 199.000,149.806 199.156,149.746 199.346 M150.605 199.500 C 150.671 199.821,150.784 200.383,150.856 200.750 C 150.958 201.276,150.969 201.210,150.906 200.436 C 150.861 199.897,150.749 199.335,150.655 199.186 C 150.532 198.990,150.518 199.075,150.605 199.500 M182.423 200.084 C 182.067 200.862,181.788 201.228,181.385 201.445 C 181.082 201.609,180.833 201.797,180.833 201.863 C 180.833 202.431,182.138 201.188,182.553 200.224 C 183.161 198.809,183.056 198.697,182.423 200.084 M249.833 199.396 C 249.833 199.614,249.721 199.886,249.583 200.000 C 249.446 200.114,249.333 200.327,249.333 200.474 C 249.333 200.673,249.401 200.645,249.596 200.365 C 249.940 199.875,250.191 199.000,249.988 199.000 C 249.903 199.000,249.833 199.178,249.833 199.396 M167.542 199.750 C 167.544 200.117,167.578 200.247,167.618 200.040 C 167.658 199.832,167.656 199.532,167.615 199.373 C 167.573 199.214,167.540 199.383,167.542 199.750 M144.531 200.286 C 144.331 200.535,144.167 200.798,144.167 200.870 C 144.167 200.941,136.460 201.018,127.042 201.041 L 109.917 201.082 126.999 201.125 L 144.081 201.168 144.378 200.792 C 144.724 200.356,145.038 199.833,144.954 199.833 C 144.922 199.833,144.731 200.037,144.531 200.286 M148.948 200.536 C 148.690 200.902,148.515 201.238,148.560 201.282 C 148.605 201.327,148.846 201.056,149.095 200.679 C 149.684 199.788,149.560 199.667,148.948 200.536 M155.193 200.698 C 155.179 201.037,155.229 201.352,155.305 201.399 C 155.382 201.447,155.541 202.242,155.659 203.167 C 155.776 204.092,155.912 204.810,155.961 204.762 C 156.082 204.640,155.662 201.623,155.496 201.416 C 155.421 201.324,155.329 200.986,155.290 200.666 L 155.220 200.083 155.193 200.698 M241.336 200.597 C 241.337 200.865,241.410 201.196,241.498 201.333 C 241.606 201.504,241.625 201.371,241.555 200.917 C 241.429 200.093,241.333 199.953,241.336 200.597 M253.097 200.461 C 253.196 200.528,253.383 200.827,253.512 201.125 C 253.642 201.423,253.805 201.667,253.874 201.667 C 253.943 201.667,254.000 201.750,254.000 201.851 C 254.000 201.952,254.201 202.196,254.448 202.393 C 254.960 202.802,256.000 203.217,256.000 203.012 C 256.000 202.937,255.794 202.832,255.542 202.778 C 255.034 202.672,254.167 201.984,254.167 201.689 C 254.167 201.585,254.106 201.500,254.031 201.500 C 253.957 201.500,253.793 201.237,253.667 200.917 C 253.540 200.594,253.322 200.334,253.177 200.336 C 253.014 200.337,252.984 200.384,253.097 200.461 M190.840 200.634 C 190.833 200.866,191.465 202.333,191.572 202.333 C 191.683 202.333,191.460 201.644,191.148 201.020 C 190.982 200.688,190.844 200.515,190.840 200.634 M263.583 200.789 C 278.440 200.904,289.667 200.905,289.667 200.792 C 289.667 200.723,282.523 200.684,273.792 200.706 C 265.060 200.728,260.467 200.765,263.583 200.789 M167.186 201.792 C 167.207 202.809,167.280 202.709,167.371 201.542 C 167.401 201.152,167.367 200.833,167.296 200.833 C 167.225 200.833,167.175 201.265,167.186 201.792 M227.833 201.250 C 227.833 201.479,227.862 201.667,227.897 201.667 C 227.932 201.667,227.997 201.479,228.041 201.250 C 228.085 201.021,228.056 200.833,227.977 200.833 C 227.898 200.833,227.833 201.021,227.833 201.250 M249.208 201.163 C 249.094 201.346,249.000 201.644,249.000 201.826 C 249.000 202.008,248.847 202.430,248.659 202.764 C 248.471 203.098,248.353 203.456,248.396 203.560 C 248.439 203.665,248.480 203.619,248.487 203.458 C 248.494 203.298,248.575 203.167,248.667 203.167 C 248.758 203.167,248.833 203.021,248.833 202.843 C 248.833 202.665,248.908 202.473,249.000 202.417 C 249.092 202.360,249.167 202.146,249.167 201.940 C 249.167 201.735,249.250 201.483,249.352 201.381 C 249.454 201.279,249.510 201.114,249.477 201.013 C 249.443 200.912,249.322 200.980,249.208 201.163 M175.500 201.246 C 175.500 201.290,175.800 201.470,176.167 201.648 C 176.971 202.036,177.039 201.954,176.292 201.498 C 175.758 201.173,175.500 201.091,175.500 201.246 M237.198 202.125 C 237.281 202.469,237.526 203.650,237.743 204.750 C 237.959 205.850,238.143 206.517,238.152 206.233 C 238.160 205.949,238.098 205.499,238.013 205.233 C 237.929 204.967,237.735 204.019,237.581 203.125 C 237.428 202.231,237.245 201.500,237.174 201.500 C 237.104 201.500,237.114 201.781,237.198 202.125 M151.036 201.917 C 151.038 202.100,151.097 202.475,151.167 202.750 C 151.281 203.199,151.294 203.208,151.297 202.833 C 151.299 202.604,151.240 202.229,151.167 202.000 C 151.062 201.674,151.034 201.655,151.036 201.917 M241.696 202.000 C 241.690 202.229,241.748 202.717,241.824 203.083 L 241.962 203.750 241.961 203.167 C 241.960 202.431,241.712 201.338,241.696 202.000 M147.449 202.422 C 147.192 202.648,147.079 202.831,147.199 202.828 C 147.319 202.825,147.551 202.638,147.716 202.411 C 148.089 201.899,148.041 201.901,147.449 202.422 M227.082 202.503 C 226.616 203.256,226.752 203.250,209.637 203.250 C 200.775 203.250,193.628 203.308,193.756 203.380 C 193.883 203.451,201.134 203.486,209.869 203.458 C 226.828 203.402,226.750 203.406,227.198 202.605 C 227.361 202.313,227.256 202.220,227.082 202.503 M244.102 203.067 C 243.954 203.379,243.837 203.772,243.841 203.942 C 243.845 204.114,243.945 203.993,244.068 203.667 C 244.189 203.346,244.344 202.952,244.412 202.792 C 244.639 202.257,244.376 202.491,244.102 203.067 M289.048 203.149 L 289.680 203.250 277.048 215.839 C 261.110 231.723,213.669 278.877,204.251 288.195 C 202.784 289.646,201.650 290.833,201.729 290.833 C 201.808 290.833,206.495 286.234,212.145 280.612 C 217.794 274.990,228.377 264.471,235.662 257.237 C 242.946 250.002,254.909 238.117,262.245 230.824 C 269.581 223.532,278.789 214.382,282.707 210.491 C 286.625 206.600,289.831 203.323,289.832 203.208 C 289.833 203.070,289.594 203.008,289.125 203.024 L 288.417 203.047 289.048 203.149 M127.292 203.292 C 113.531 203.327,110.500 203.375,110.500 203.555 C 110.500 203.675,111.156 204.369,111.958 205.095 C 112.760 205.822,116.531 209.510,120.337 213.291 C 124.143 217.072,127.443 220.294,127.670 220.450 C 128.121 220.761,114.030 206.790,112.000 204.913 C 111.313 204.277,110.725 203.699,110.694 203.629 C 110.664 203.558,118.126 203.492,127.278 203.482 C 136.429 203.472,144.367 203.408,144.917 203.340 L 145.917 203.216 145.000 203.232 C 144.496 203.241,136.527 203.268,127.292 203.292 M151.333 204.250 C 151.333 204.479,151.398 204.667,151.477 204.667 C 151.556 204.667,151.585 204.479,151.541 204.250 C 151.497 204.021,151.432 203.833,151.397 203.833 C 151.362 203.833,151.333 204.021,151.333 204.250 M166.937 204.090 C 166.880 204.239,166.843 204.673,166.854 205.055 C 166.874 205.721,166.880 205.712,167.008 204.834 C 167.144 203.889,167.119 203.617,166.937 204.090 M248.114 204.064 C 248.051 204.227,248.005 204.486,248.011 204.639 C 248.018 204.823,248.075 204.781,248.182 204.514 C 248.270 204.293,248.317 204.034,248.285 203.939 C 248.254 203.844,248.177 203.900,248.114 204.064 M151.709 205.750 C 151.711 206.117,151.745 206.247,151.785 206.040 C 151.824 205.832,151.823 205.532,151.781 205.373 C 151.739 205.214,151.707 205.383,151.709 205.750 M156.021 205.301 C 155.986 205.668,156.354 207.895,156.508 208.250 C 156.588 208.433,156.683 208.771,156.720 209.000 C 156.775 209.338,156.792 209.313,156.811 208.873 C 156.823 208.574,156.762 208.199,156.675 208.039 C 156.588 207.880,156.409 207.150,156.279 206.417 C 156.149 205.683,156.032 205.181,156.021 205.301 M242.377 205.500 C 242.408 205.823,242.511 205.917,242.833 205.917 C 243.156 205.917,243.259 205.823,243.290 205.500 C 243.329 205.089,243.328 205.089,243.170 205.458 C 243.083 205.665,242.931 205.833,242.833 205.833 C 242.736 205.833,242.584 205.665,242.496 205.458 C 242.339 205.089,242.337 205.089,242.377 205.500 M162.247 206.391 C 162.183 206.987,162.164 207.574,162.205 207.696 C 162.246 207.817,162.335 207.366,162.402 206.692 C 162.469 206.019,162.487 205.432,162.443 205.387 C 162.399 205.343,162.310 205.795,162.247 206.391 M247.459 206.083 C 247.415 206.313,247.444 206.500,247.523 206.500 C 247.602 206.500,247.667 206.313,247.667 206.083 C 247.667 205.854,247.638 205.667,247.603 205.667 C 247.568 205.667,247.503 205.854,247.459 206.083 M166.604 207.090 C 166.547 207.239,166.508 207.561,166.517 207.805 C 166.530 208.163,166.563 208.123,166.686 207.600 C 166.842 206.933,166.790 206.605,166.604 207.090 M246.950 207.625 C 246.776 207.934,246.666 208.687,246.807 208.599 C 246.892 208.547,246.995 208.278,247.035 208.002 C 247.109 207.502,247.083 207.388,246.950 207.625 M238.531 208.250 C 238.527 208.525,238.588 208.900,238.667 209.083 L 238.810 209.417 238.802 209.083 C 238.797 208.900,238.737 208.525,238.667 208.250 L 238.539 207.750 238.531 208.250 M161.968 209.250 C 161.931 209.571,161.960 209.833,162.033 209.833 C 162.107 209.833,162.167 209.571,162.167 209.250 C 162.167 208.929,162.137 208.667,162.102 208.667 C 162.066 208.667,162.006 208.929,161.968 209.250 M246.356 208.948 C 246.344 209.149,246.258 209.360,246.167 209.417 C 246.075 209.473,246.001 209.684,246.003 209.885 C 246.007 210.544,245.170 211.917,244.613 212.164 C 244.310 212.298,244.187 212.423,244.317 212.467 C 244.439 212.507,244.586 212.475,244.644 212.395 C 244.702 212.315,244.889 212.173,245.060 212.080 C 245.459 211.861,246.167 210.603,246.167 210.112 C 246.167 209.904,246.248 209.652,246.347 209.553 C 246.447 209.453,246.495 209.194,246.453 208.978 C 246.383 208.605,246.377 208.603,246.356 208.948 M152.372 210.167 C 152.372 210.487,152.406 210.619,152.448 210.458 C 152.490 210.298,152.490 210.035,152.448 209.875 C 152.406 209.715,152.372 209.846,152.372 210.167 M156.992 210.546 C 157.073 211.233,157.076 211.236,157.133 210.687 C 157.165 210.378,157.127 210.061,157.050 209.983 C 156.972 209.906,156.946 210.159,156.992 210.546 M166.356 210.092 C 166.344 210.280,166.266 210.505,166.184 210.592 C 166.101 210.679,165.991 211.275,165.940 211.917 C 165.888 212.558,165.774 213.758,165.686 214.583 C 165.598 215.408,165.485 216.646,165.435 217.333 C 165.385 218.021,165.454 217.683,165.589 216.583 C 165.724 215.483,165.909 214.076,166.000 213.455 C 166.092 212.835,166.167 211.960,166.167 211.511 C 166.167 211.062,166.249 210.667,166.350 210.633 C 166.450 210.600,166.498 210.387,166.456 210.161 C 166.394 209.830,166.374 209.816,166.356 210.092 M238.833 210.212 C 238.833 210.451,238.911 210.695,239.007 210.754 C 239.120 210.824,239.141 210.699,239.067 210.389 C 238.913 209.750,238.833 209.690,238.833 210.212 M152.626 211.583 C 152.670 211.813,152.734 212.000,152.769 212.000 C 152.805 212.000,152.833 211.813,152.833 211.583 C 152.833 211.354,152.769 211.167,152.690 211.167 C 152.611 211.167,152.582 211.354,152.626 211.583 M157.167 212.379 C 157.167 212.618,157.245 212.862,157.340 212.921 C 157.454 212.991,157.474 212.865,157.400 212.556 C 157.246 211.917,157.167 211.857,157.167 212.379 M240.000 212.121 C 240.137 212.174,240.287 212.262,240.333 212.317 C 240.710 212.768,243.323 213.086,243.558 212.708 C 243.601 212.640,243.149 212.609,242.555 212.640 C 241.510 212.694,240.500 212.452,240.500 212.146 C 240.500 212.066,240.331 212.006,240.125 212.013 C 239.874 212.022,239.833 212.058,240.000 212.121 M153.017 213.431 C 153.026 213.790,153.095 214.271,153.170 214.500 C 153.255 214.759,153.271 214.538,153.213 213.917 C 153.106 212.759,152.992 212.479,153.017 213.431 M157.500 214.583 C 157.500 214.813,157.565 215.000,157.644 215.000 C 157.723 215.000,157.751 214.813,157.707 214.583 C 157.664 214.354,157.599 214.167,157.564 214.167 C 157.529 214.167,157.500 214.354,157.500 214.583 M153.248 215.500 C 153.294 215.821,153.376 216.383,153.429 216.750 C 153.482 217.117,153.593 217.567,153.674 217.750 C 153.756 217.933,153.851 218.346,153.885 218.667 C 153.936 219.153,153.951 219.120,153.973 218.468 C 153.988 218.038,153.925 217.640,153.833 217.583 C 153.742 217.527,153.666 217.241,153.664 216.948 C 153.663 216.656,153.550 216.079,153.413 215.667 C 153.192 215.003,153.173 214.984,153.248 215.500 M161.111 215.944 C 161.050 216.006,161.006 216.249,161.014 216.486 C 161.028 216.909,161.031 216.908,161.175 216.425 C 161.327 215.918,161.305 215.751,161.111 215.944 M160.860 218.104 C 160.845 218.391,160.796 218.878,160.751 219.188 L 160.668 219.750 160.843 219.191 C 160.940 218.884,160.989 218.396,160.953 218.108 L 160.887 217.583 160.860 218.104 M165.099 219.280 C 165.001 219.743,164.712 222.545,164.578 224.333 C 164.486 225.551,164.915 222.696,165.140 220.590 C 165.315 218.960,165.295 218.350,165.099 219.280 M154.102 220.420 C 154.218 221.776,154.310 222.167,154.509 222.167 C 154.623 222.167,154.622 222.061,154.506 221.844 C 154.411 221.667,154.332 221.161,154.331 220.719 C 154.329 220.278,154.258 219.806,154.172 219.670 C 154.070 219.508,154.046 219.767,154.102 220.420 M158.613 220.750 C 158.666 221.208,158.775 221.710,158.855 221.864 C 158.935 222.018,159.007 222.506,159.016 222.947 C 159.041 224.202,159.371 225.403,159.709 225.468 C 159.925 225.510,160.000 225.414,160.000 225.096 C 160.000 224.860,160.065 224.667,160.144 224.667 C 160.292 224.667,160.744 221.188,160.613 221.057 C 160.535 220.980,160.410 221.769,160.233 223.458 C 160.173 224.031,160.058 224.500,159.978 224.500 C 159.899 224.500,159.833 224.688,159.833 224.917 C 159.833 225.146,159.771 225.333,159.695 225.333 C 159.535 225.333,159.167 223.469,159.167 222.659 C 159.167 222.356,159.096 221.877,159.009 221.595 C 158.923 221.314,158.777 220.821,158.685 220.500 C 158.533 219.972,158.527 219.995,158.613 220.750 M128.167 220.923 C 128.167 221.003,130.923 223.801,134.292 227.141 C 148.569 241.298,153.204 245.875,152.580 245.199 C 152.110 244.689,128.937 221.506,128.240 220.847 C 128.200 220.809,128.167 220.843,128.167 220.923 M154.705 223.167 C 154.705 223.487,154.740 223.619,154.782 223.458 C 154.823 223.298,154.823 223.035,154.782 222.875 C 154.740 222.715,154.705 222.846,154.705 223.167 M154.992 225.379 C 155.073 226.066,155.076 226.069,155.133 225.520 C 155.165 225.211,155.127 224.894,155.050 224.816 C 154.972 224.739,154.946 224.992,154.992 225.379 M164.209 227.250 C 164.211 227.617,164.245 227.747,164.285 227.540 C 164.324 227.332,164.323 227.032,164.281 226.873 C 164.239 226.714,164.207 226.883,164.209 227.250 M155.653 229.292 C 155.733 229.867,155.745 229.879,155.800 229.438 C 155.833 229.175,155.794 228.894,155.713 228.813 C 155.629 228.729,155.604 228.934,155.653 229.292 M163.898 228.905 C 163.848 229.035,163.835 229.317,163.869 229.530 C 163.915 229.814,163.953 229.751,164.015 229.292 C 164.103 228.645,164.057 228.492,163.898 228.905 M155.867 230.583 C 155.867 230.767,155.927 231.104,156.000 231.333 C 156.106 231.663,156.133 231.681,156.133 231.417 C 156.133 231.233,156.073 230.896,156.000 230.667 C 155.894 230.337,155.867 230.319,155.867 230.583 M163.595 231.429 C 163.534 231.673,163.516 231.905,163.555 231.944 C 163.594 231.983,163.677 231.816,163.738 231.571 C 163.799 231.327,163.817 231.095,163.778 231.056 C 163.739 231.017,163.657 231.184,163.595 231.429 M156.167 231.961 C 156.167 232.194,156.828 232.833,157.069 232.833 C 157.192 232.833,157.377 232.935,157.480 233.059 C 158.034 233.727,162.151 233.422,162.977 232.652 C 163.477 232.186,163.420 232.083,162.875 232.466 C 161.750 233.255,158.374 233.557,157.681 232.930 C 157.521 232.785,157.306 232.667,157.203 232.667 C 157.100 232.667,156.824 232.476,156.591 232.242 C 156.358 232.009,156.167 231.882,156.167 231.961 M153.922 246.500 C 154.317 247.009,162.440 255.133,172.084 264.666 C 176.025 268.561,178.575 271.036,177.750 270.166 C 175.759 268.065,153.507 245.965,153.922 246.500 M179.668 272.083 C 180.349 272.920,198.226 290.669,198.583 290.864 C 198.767 290.964,198.877 291.016,198.828 290.981 C 198.779 290.946,194.357 286.567,189.000 281.250 C 183.644 275.933,179.444 271.808,179.668 272.083 M199.875 291.282 C 200.035 291.323,200.298 291.323,200.458 291.282 C 200.619 291.240,200.487 291.205,200.167 291.205 C 199.846 291.205,199.715 291.240,199.875 291.282 " stroke="none" fill="#d0d1c6" fill-rule="evenodd"></path><path id="path3" d="M146.044 108.953 C 146.297 108.991,146.672 108.990,146.877 108.951 C 147.082 108.911,146.875 108.880,146.417 108.881 C 145.958 108.882,145.791 108.915,146.044 108.953 M152.377 108.953 C 152.631 108.991,153.006 108.990,153.211 108.951 C 153.416 108.911,153.208 108.880,152.750 108.881 C 152.292 108.882,152.124 108.915,152.377 108.953 M246.877 108.953 C 247.131 108.991,247.506 108.990,247.711 108.951 C 247.916 108.911,247.708 108.880,247.250 108.881 C 246.792 108.882,246.624 108.915,246.877 108.953 M253.211 108.953 C 253.464 108.991,253.839 108.990,254.044 108.951 C 254.249 108.911,254.042 108.880,253.583 108.881 C 253.125 108.882,252.957 108.915,253.211 108.953 M211.245 125.042 L 210.250 126.083 211.292 125.089 C 212.259 124.164,212.410 124.000,212.286 124.000 C 212.261 124.000,211.792 124.469,211.245 125.042 M168.068 156.896 C 168.020 157.022,168.005 157.491,168.035 157.938 L 168.090 158.750 168.170 157.708 C 168.251 156.655,168.229 156.478,168.068 156.896 M173.829 157.466 L 173.910 158.250 173.966 157.603 C 173.997 157.247,173.961 156.894,173.886 156.819 C 173.810 156.744,173.785 157.035,173.829 157.466 M174.212 160.500 C 174.212 160.912,174.245 161.081,174.284 160.875 C 174.324 160.669,174.324 160.331,174.284 160.125 C 174.245 159.919,174.212 160.087,174.212 160.500 M305.712 160.667 C 305.712 161.079,305.745 161.248,305.784 161.042 C 305.824 160.835,305.824 160.498,305.784 160.292 C 305.745 160.085,305.712 160.254,305.712 160.667 M167.712 160.833 C 167.712 161.246,167.745 161.415,167.784 161.208 C 167.824 161.002,167.824 160.665,167.784 160.458 C 167.745 160.252,167.712 160.421,167.712 160.833 M174.372 161.833 C 174.372 162.154,174.406 162.285,174.448 162.125 C 174.490 161.965,174.490 161.702,174.448 161.542 C 174.406 161.381,174.372 161.512,174.372 161.833 M94.058 164.167 C 94.058 164.946,94.087 165.265,94.122 164.875 C 94.157 164.485,94.157 163.848,94.122 163.458 C 94.087 163.069,94.058 163.387,94.058 164.167 M167.205 165.000 C 167.205 165.321,167.240 165.452,167.282 165.292 C 167.323 165.131,167.323 164.869,167.282 164.708 C 167.240 164.548,167.205 164.679,167.205 165.000 M305.712 167.667 C 305.712 168.079,305.745 168.248,305.784 168.042 C 305.824 167.835,305.824 167.498,305.784 167.292 C 305.745 167.085,305.712 167.254,305.712 167.667 M236.039 174.333 C 236.039 174.654,236.073 174.785,236.115 174.625 C 236.157 174.465,236.157 174.202,236.115 174.042 C 236.073 173.881,236.039 174.012,236.039 174.333 M228.705 177.667 C 228.705 177.987,228.740 178.119,228.782 177.958 C 228.823 177.798,228.823 177.535,228.782 177.375 C 228.740 177.215,228.705 177.346,228.705 177.667 M176.879 179.500 C 176.879 179.912,176.911 180.081,176.951 179.875 C 176.991 179.669,176.991 179.331,176.951 179.125 C 176.911 178.919,176.879 179.088,176.879 179.500 M177.126 181.750 C 177.174 182.483,177.240 183.115,177.273 183.153 C 177.384 183.281,177.295 181.422,177.166 180.917 C 177.093 180.633,177.076 180.994,177.126 181.750 M165.050 182.500 C 165.050 183.004,165.081 183.210,165.119 182.958 C 165.158 182.706,165.158 182.294,165.119 182.042 C 165.081 181.790,165.050 181.996,165.050 182.500 M177.362 183.667 C 177.357 183.896,177.415 184.383,177.490 184.750 C 177.579 185.178,177.632 185.267,177.638 185.000 C 177.643 184.771,177.585 184.283,177.510 183.917 C 177.421 183.489,177.368 183.399,177.362 183.667 M164.745 184.745 C 164.680 185.444,164.662 186.051,164.706 186.095 C 164.750 186.139,164.838 185.602,164.902 184.902 C 164.965 184.202,164.983 183.594,164.941 183.552 C 164.899 183.510,164.811 184.047,164.745 184.745 M164.447 187.752 C 164.386 188.117,164.346 188.679,164.356 189.000 C 164.368 189.366,164.429 189.179,164.518 188.500 C 164.676 187.298,164.620 186.704,164.447 187.752 M163.872 192.500 C 163.872 192.821,163.906 192.952,163.948 192.792 C 163.990 192.631,163.990 192.369,163.948 192.208 C 163.906 192.048,163.872 192.179,163.872 192.500 M148.681 194.068 C 148.464 194.299,148.337 194.601,148.382 194.777 C 148.456 195.061,148.463 195.060,148.481 194.761 C 148.491 194.583,148.663 194.265,148.862 194.052 C 149.062 193.840,149.187 193.667,149.141 193.667 C 149.096 193.667,148.888 193.847,148.681 194.068 M154.487 195.292 C 154.566 195.867,154.578 195.879,154.633 195.438 C 154.666 195.175,154.627 194.894,154.547 194.813 C 154.463 194.729,154.437 194.934,154.487 195.292 M254.667 194.706 C 254.667 194.880,255.392 196.164,255.455 196.101 C 255.489 196.067,255.355 195.749,255.157 195.395 C 254.771 194.703,254.667 194.556,254.667 194.706 M154.780 197.083 C 154.833 197.542,154.904 197.948,154.938 197.986 C 155.055 198.117,154.967 197.083,154.825 196.667 C 154.730 196.386,154.715 196.521,154.780 197.083 M145.680 198.344 C 145.673 198.487,145.514 198.768,145.327 198.969 C 145.140 199.169,145.056 199.333,145.141 199.333 C 145.371 199.333,145.867 198.510,145.774 198.282 C 145.725 198.163,145.688 198.188,145.680 198.344 M155.029 198.583 C 155.024 198.767,155.081 199.217,155.157 199.583 C 155.273 200.144,155.295 200.170,155.294 199.750 C 155.294 199.166,155.045 198.071,155.029 198.583 M161.605 210.980 C 161.541 211.749,161.522 212.411,161.562 212.451 C 161.666 212.555,161.886 210.074,161.796 209.805 C 161.755 209.683,161.669 210.212,161.605 210.980 M161.379 213.333 C 161.379 213.746,161.411 213.915,161.451 213.708 C 161.491 213.502,161.491 213.165,161.451 212.958 C 161.411 212.752,161.379 212.921,161.379 213.333 M157.542 213.583 C 157.544 213.950,157.578 214.080,157.618 213.873 C 157.658 213.666,157.656 213.366,157.615 213.206 C 157.573 213.047,157.540 213.217,157.542 213.583 M161.209 215.250 C 161.211 215.617,161.245 215.747,161.285 215.540 C 161.324 215.332,161.323 215.032,161.281 214.873 C 161.239 214.714,161.207 214.883,161.209 215.250 M157.872 215.333 C 157.872 215.654,157.906 215.785,157.948 215.625 C 157.990 215.465,157.990 215.202,157.948 215.042 C 157.906 214.881,157.872 215.012,157.872 215.333 M160.872 217.167 C 160.872 217.487,160.906 217.619,160.948 217.458 C 160.990 217.298,160.990 217.035,160.948 216.875 C 160.906 216.715,160.872 216.846,160.872 217.167 M158.205 217.667 C 158.205 217.987,158.240 218.119,158.282 217.958 C 158.323 217.798,158.323 217.535,158.282 217.375 C 158.240 217.215,158.205 217.346,158.205 217.667 M158.539 219.500 C 158.539 219.821,158.573 219.952,158.615 219.792 C 158.657 219.631,158.657 219.369,158.615 219.208 C 158.573 219.048,158.539 219.179,158.539 219.500 M160.548 220.250 C 160.549 220.708,160.581 220.876,160.620 220.623 C 160.658 220.369,160.657 219.994,160.617 219.789 C 160.578 219.584,160.546 219.792,160.548 220.250 " stroke="none" fill="#b2bf42" fill-rule="evenodd"></path><path id="path4" d="" stroke="none" fill="#a4b434" fill-rule="evenodd"></path></g></svg>